# xmcd
#
# Track frame offsets:
# 182
# 21992
# 39740
# 57645
# 79637
# 99330
# 117290
# 144432
# 170630
# 187485
# 200500
# 215432
#
# Disc length: 3079 seconds
#
#
# Revision: 3
# Processed by: cddbd v1.5.2PL0 Copyright (c) Steve Scherf et al.
# Submitted via: FreeRIP 2.941 
#
DISCID=b40c050c
DTITLE=Various Artist - La scuola romana
DYEAR=1990
DGENRE=
TTITLE0=Antonello Venditti - Roma Capoccia
TTITLE1=Claudio Baglioni - Porta Portese
TTITLE2=Luca Barbarossa - Via Margutta
TTITLE3=Lucio Battisti - La Collina dei ciliegi
TTITLE4=Francesco De Gregori - Pablo
TTITLE5=Amedeo Minghi - Emanuela E Io
TTITLE6=Antonello Venditti - Campo de' fiori
TTITLE7=Claudio Baglioni - Amore bello
TTITLE8=Francesco De Gregori - Alice
TTITLE9=Mimmo Loscasciulli - Canzone di sera
TTITLE10=Rino Gaetano - Mio fratello è figlio unico
TTITLE11=Stefano Rossi - Letto 26
EXTD=YEAR: 1990
EXTT0=
EXTT1=
EXTT2=
EXTT3=
EXTT4=
EXTT5=
EXTT6=
EXTT7=
EXTT8=
EXTT9=
EXTT10=
EXTT11=
PLAYORDER=
